<svg width="60" height="60" viewBox="0 0 60 60" fill="none" xmlns="http://www.w3.org/2000/svg">
<circle cx="30" cy="30" r="29.5" stroke="black" stroke-opacity="0.1"/>
<path d="M46.7948 28.6511C46.7662 28.3776 46.6263 28.1282 46.4083 27.9622L43.7467 25.9357L44.7151 22.724C44.7944 22.4607 44.7618 22.1763 44.6251 21.9381C44.4883 21.6999 44.2595 21.5294 43.9931 21.4668L40.7415 20.7037L40.3264 17.3736C40.2924 17.1008 40.1476 16.8542 39.9263 16.6927C39.705 16.5309 39.4269 16.4685 39.1583 16.5204L35.8792 17.1526L34.1522 14.2802C34.0108 14.0449 33.7786 13.8789 33.5111 13.8218C33.2435 13.7646 32.9643 13.8212 32.7398 13.9784L30.0001 15.8966L27.2604 13.9785C27.0358 13.8214 26.7566 13.7646 26.4891 13.8218C26.2214 13.879 25.9894 14.0449 25.8479 14.2803L24.1212 17.1528L20.8421 16.5206C20.5734 16.4689 20.2954 16.5312 20.0741 16.6929C19.8528 16.8545 19.7079 17.1009 19.674 17.3738L19.2589 20.7039L16.0073 21.467C15.7409 21.5296 15.5122 21.7001 15.3753 21.9383C15.2386 22.1765 15.206 22.4608 15.2853 22.724L16.2535 25.9358L13.5922 27.9622C13.3741 28.1282 13.2342 28.3776 13.2056 28.6511C13.177 28.9245 13.2623 29.1977 13.4413 29.4057L15.6254 31.9441L14.0139 34.8834C13.8819 35.1242 13.855 35.4092 13.9395 35.6708C14.0241 35.9322 14.2125 36.1469 14.4602 36.2637L17.4826 37.6896L17.1998 41.0337C17.1766 41.3077 17.2673 41.5792 17.4505 41.7835C17.6334 41.9879 17.8926 42.1069 18.166 42.1124L21.5044 42.1793L22.5991 45.3498C22.6888 45.6096 22.8815 45.8206 23.1314 45.9324C23.3814 46.0443 23.6661 46.047 23.9183 45.9403L26.9952 44.6366L29.2783 47.0855C29.4654 47.2861 29.7267 47.4 30.0002 47.4C30.2738 47.4 30.5351 47.2861 30.7222 47.0855L33.0054 44.6366L36.082 45.9403C36.3341 46.0469 36.619 46.0441 36.8689 45.9324C37.1188 45.8206 37.3115 45.6097 37.4011 45.3499L38.496 42.1793L41.8342 42.1124C42.1077 42.107 42.3668 41.9879 42.5498 41.7835C42.7329 41.5792 42.8236 41.3078 42.8004 41.0337L42.5177 37.6896L45.5403 36.2637C45.788 36.1469 45.9764 35.9322 46.061 35.6707C46.1455 35.4093 46.1186 35.1242 45.9865 34.8833L44.3749 31.944L46.5592 29.4056C46.7381 29.1978 46.8233 28.9245 46.7948 28.6511ZM30.0001 40.1172C24.7793 40.1172 20.5319 35.8478 20.5319 30.6C20.5319 25.3522 24.7793 21.0828 30.0001 21.0828C35.2209 21.0828 39.4684 25.3522 39.4684 30.6C39.4684 35.8477 35.2209 40.1172 30.0001 40.1172Z" fill="#45D8BB"/>
<path d="M30.0002 23.0719C25.8706 23.0719 22.5109 26.449 22.5109 30.5999C22.5109 34.7508 25.8706 38.1279 30.0002 38.1279C34.1299 38.1279 37.4894 34.7508 37.4894 30.5999C37.4894 26.449 34.1298 23.0719 30.0002 23.0719ZM33.8794 29.1726L29.6401 33.4339C29.4468 33.6281 29.1936 33.7252 28.9404 33.7252C28.6872 33.7252 28.4339 33.6281 28.2408 33.4339L26.121 31.3032C25.7347 30.9149 25.7347 30.2851 26.121 29.8967C26.5073 29.5083 27.1339 29.5082 27.5203 29.8967L28.9404 31.324L32.4801 27.7661C32.8665 27.3777 33.493 27.3776 33.8794 27.7661C34.2658 28.1545 34.2658 28.7842 33.8794 29.1726Z" fill="#45D8BB"/>
</svg>
