<svg width="60" height="60" viewBox="0 0 60 60" fill="none" xmlns="http://www.w3.org/2000/svg">
<circle cx="30" cy="30" r="29.5" stroke="black" stroke-opacity="0.1"/>
<path d="M44.3263 31.1996C43.0987 33.0915 41.2267 34.7007 38.5447 36.2416C38.1325 36.4774 37.6681 36.5998 37.2001 36.5998C36.7321 36.5998 36.2677 36.4774 35.8609 36.2452C33.1789 34.7007 31.3069 33.0897 30.0775 31.1996H15.6001V40.1999C15.6001 41.1936 16.4083 42 17.4001 42H42.6001C43.5937 42 44.4001 41.1936 44.4001 40.1999V31.1996H44.3263ZM23.7001 36.5998H20.1001C19.6033 36.5998 19.2001 36.1966 19.2001 35.6998C19.2001 35.2029 19.6033 34.7997 20.1001 34.7997H23.7001C24.1969 34.7997 24.6001 35.2029 24.6001 35.6998C24.6001 36.1966 24.1969 36.5998 23.7001 36.5998Z" fill="#45D8BB"/>
<path d="M28.2001 23.9993V22.1993H17.4001C16.4083 22.1993 15.6001 23.0075 15.6001 23.9993V27.5995H28.5799C28.3297 26.4996 28.2001 25.3152 28.2001 23.9993Z" fill="#45D8BB"/>
<path d="M43.8547 19.573L37.5547 16.8729C37.3261 16.7757 37.0723 16.7757 36.8437 16.8729L30.5437 19.573C30.2143 19.7134 30.0001 20.0392 30.0001 20.3992V23.9993C30.0001 28.9513 31.8307 31.8458 36.7519 34.6809C36.8905 34.7601 37.0453 34.7997 37.2001 34.7997C37.3549 34.7997 37.5097 34.7601 37.6483 34.6809C42.5695 31.853 44.4001 28.9585 44.4001 23.9993V20.3992C44.4001 20.0392 44.1859 19.7134 43.8547 19.573ZM40.6039 23.6627L37.0039 28.1629C36.8311 28.3753 36.5719 28.4995 36.3001 28.4995C36.2875 28.4995 36.2731 28.4995 36.2623 28.4995C35.9761 28.4869 35.7115 28.3393 35.5513 28.0999L33.7513 25.3998C33.4759 24.9858 33.5875 24.4278 34.0015 24.1524C34.4119 23.8787 34.9717 23.9867 35.2489 24.4026L36.3667 26.0784L39.1963 22.5395C39.5077 22.1525 40.0747 22.0913 40.4617 22.3991C40.8505 22.7069 40.9117 23.2739 40.6039 23.6627Z" fill="#45D8BB"/>
</svg>
