<svg width="60" height="60" viewBox="0 0 60 60" fill="none" xmlns="http://www.w3.org/2000/svg">
<circle cx="30" cy="30" r="29.5" stroke="black" stroke-opacity="0.1"/>
<path d="M39.3524 34.5618C38.1243 36.2588 36.135 37.3641 33.8936 37.3641H30.7487C29.6623 37.3641 28.7371 36.6701 28.3867 35.6989C27.9543 35.5691 27.5302 35.4006 27.1164 35.1937C26.2401 34.7557 25.4444 34.1622 24.7439 33.4269C20.2004 34.4312 16.7998 38.5045 16.7998 43.3776V44.0146C16.7998 44.8902 17.5053 45.6 18.3756 45.6H42.824C43.6943 45.6 44.3998 44.8902 44.3998 44.0146V43.3776C44.3997 39.6131 42.3703 36.3258 39.3524 34.5618Z" fill="#45D8BB"/>
<path d="M23.0691 30.1591C23.7464 30.1591 24.3359 29.7814 24.6413 29.2241C24.6493 29.2462 24.6574 29.2681 24.6657 29.29C24.6681 29.2966 24.6705 29.3032 24.673 29.3098C25.3894 31.2072 26.7834 32.7977 28.6216 33.4927C29.0662 32.782 29.8524 32.3093 30.7487 32.3093H33.8937C34.2074 32.3093 34.4993 32.2203 34.7553 32.0763C35.1852 31.8345 35.5717 31.2209 35.7713 30.8957C36.0908 30.3753 36.3383 29.8241 36.5577 29.2232C36.6811 29.4485 36.8507 29.6445 37.0539 29.7981V30.574C37.0539 32.3272 35.6362 33.7536 33.8936 33.7536H30.7487C30.1541 33.7536 29.6721 34.2386 29.6721 34.8368C29.6721 35.435 30.1541 35.9199 30.7487 35.9199H33.8936C36.8234 35.9199 39.207 33.5218 39.207 30.574V29.7981C39.6428 29.4687 39.9247 28.9445 39.9247 28.3539V23.8354C39.9247 23.2326 39.6309 22.6994 39.1798 22.3714C38.8299 17.917 35.1155 14.4 30.5998 14.4C26.084 14.4 22.3696 17.917 22.0197 22.3714C21.5686 22.6993 21.2748 23.2326 21.2748 23.8353V28.3538C21.2748 29.3536 22.0821 30.1591 23.0691 30.1591ZM30.5998 16.5664C33.9426 16.5664 36.6999 19.1367 37.0222 22.4162C36.8106 22.5836 36.6373 22.7976 36.5179 23.0432C35.502 20.3767 33.2344 18.5201 30.5997 18.5201C27.9082 18.5201 25.6769 20.4405 24.6855 23.0325C24.6842 23.0361 24.6829 23.0397 24.6815 23.0433C24.5621 22.7977 24.3888 22.5837 24.1772 22.4162C24.4997 19.1367 27.2569 16.5664 30.5998 16.5664Z" fill="#45D8BB"/>
</svg>
