<svg width="60" height="60" viewBox="0 0 60 60" fill="none" xmlns="http://www.w3.org/2000/svg">
<circle cx="30" cy="30" r="29.5" stroke="black" stroke-opacity="0.1"/>
<path d="M25.1658 25.2686C23.8994 25.2686 22.869 26.299 22.869 27.5654C22.869 28.8321 23.8994 29.8625 25.1658 29.8625C26.4325 29.8625 27.4629 28.8321 27.4629 27.5654C27.4629 26.299 26.4325 25.2686 25.1658 25.2686Z" fill="#45D8BB"/>
<path d="M31.5571 38.3314H35.9315V33.9567C34.8611 35.7535 33.3539 37.2607 31.5571 38.3314Z" fill="#45D8BB"/>
<path d="M25.1658 16.8C19.2298 16.8 14.4004 21.6294 14.4004 27.5654C14.4004 33.5017 19.2298 38.3311 25.1658 38.3311C31.1021 38.3311 35.9315 33.5017 35.9315 27.5654C35.9318 21.6294 31.1021 16.8 25.1658 16.8ZM25.1658 31.6203C22.9301 31.6203 21.1112 29.8014 21.1112 27.5654C21.1112 25.3297 22.9301 23.511 25.1658 23.511C27.4018 23.511 29.2207 25.3297 29.2207 27.5654C29.2207 29.8014 27.4018 31.6203 25.1658 31.6203Z" fill="#45D8BB"/>
<path d="M41.0448 27.7453H44.4004V27.5654C44.4004 26.7774 44.3143 26.009 44.153 25.2688H40.6064C40.121 25.2688 39.7275 24.8752 39.7275 24.3899C39.7275 23.9045 40.121 23.511 40.6064 23.511H43.6071C43.2434 22.6198 42.7637 21.7882 42.1869 21.0345H38.3831C37.8979 21.0345 37.5042 20.6409 37.5042 20.1556C37.5042 19.6702 37.8979 19.2767 38.3831 19.2767H40.4968C38.6323 17.7306 36.2403 16.8 33.6347 16.8H31.5571C35.2261 18.9863 37.6893 22.9933 37.6893 27.5654V40.4485H44.4004V37.972H41.0448C40.5593 37.972 40.1658 37.5783 40.1658 37.0931C40.1658 36.6077 40.5593 36.2142 41.0448 36.2142H44.4004V33.7375H41.0448C40.5593 33.7375 40.1658 33.344 40.1658 32.8586C40.1658 32.3731 40.5593 31.9797 41.0448 31.9797H44.4004V29.5032H41.0448C40.5593 29.5032 40.1658 29.1097 40.1658 28.6243C40.1658 28.1388 40.5593 27.7453 41.0448 27.7453Z" fill="#45D8BB"/>
<path d="M37.6896 45.9211C37.6896 46.4065 38.083 46.8 38.5685 46.8H43.5215C44.0067 46.8 44.4004 46.4065 44.4004 45.9211V42.2063H37.6896V45.9211Z" fill="#45D8BB"/>
</svg>
