<svg width="60" height="60" viewBox="0 0 60 60" fill="none" xmlns="http://www.w3.org/2000/svg">
<circle cx="30" cy="30" r="29.5" stroke="black" stroke-opacity="0.1"/>
<path d="M42.8338 33.7391C45.0208 33.7391 46.8002 31.9192 46.8002 29.6823V27.7445H44.2865C43.5144 27.7445 42.7678 27.9752 42.1281 28.4017C42.0567 27.9992 41.9672 27.6016 41.8586 27.2105L42.6169 26.7642C43.5344 26.2224 44.1907 25.3476 44.465 24.3008C44.7392 23.2541 44.5984 22.1608 44.0687 21.2223L43.1215 19.5442L40.9446 20.8297C40.2759 21.2246 39.7423 21.8062 39.3974 22.5026C39.1241 22.1741 38.8329 21.8591 38.5251 21.5582L38.8906 20.9108C39.4203 19.9723 39.561 18.879 39.2868 17.8323C39.0126 16.7856 38.3563 15.9108 37.4387 15.3689L35.798 14.4001L34.5412 16.6266C34.0115 17.5651 33.8707 18.6584 34.1449 19.7051C34.4192 20.7518 35.0755 21.6266 35.993 22.1685L36.7023 22.5873C39.0271 24.6031 40.3593 27.5422 40.3593 30.6655C40.3593 36.5076 35.7123 41.2605 30.0004 41.2605C24.2886 41.2605 19.6416 36.5076 19.6416 30.6655C19.6416 27.5423 20.9739 24.6031 23.2987 22.5873L24.0079 22.1685C24.9254 21.6267 25.5817 20.7518 25.856 19.7051C26.1301 18.6584 25.9894 17.5651 25.4597 16.6266L24.2029 14.4L22.5622 15.3689C21.6446 15.9107 20.9883 16.7855 20.7141 17.8323C20.4399 18.879 20.5806 19.9723 21.1103 20.9108L21.4758 21.5582C21.1679 21.8591 20.8766 22.1743 20.6032 22.5029C20.2584 21.8063 19.7248 21.2246 19.056 20.8297L16.879 19.5442L15.9317 21.2223C15.402 22.1608 15.2612 23.2541 15.5354 24.3008C15.8097 25.3475 16.466 26.2223 17.3847 26.7649L18.1422 27.2107C18.0336 27.6019 17.9441 27.9995 17.8727 28.402C17.233 27.9753 16.4861 27.7445 15.7139 27.7445H13.2002V29.6823C13.2002 31.9193 14.9796 33.7391 17.168 33.7391L18.0437 33.7378C18.1416 34.1361 18.2581 34.5269 18.3921 34.9093C17.6286 34.8658 16.8686 35.0472 16.2 35.442L14.023 36.7275L14.9704 38.4056C15.5001 39.3441 16.3554 40.0154 17.3788 40.2958C17.7205 40.3895 18.067 40.4358 18.4115 40.4358C19.099 40.4358 19.7778 40.2512 20.3898 39.8898L21.154 39.4371C21.4319 39.7302 21.7236 40.0096 22.0279 40.2742C21.3447 40.6267 20.7742 41.1735 20.3871 41.8592L19.1303 44.0858L20.771 45.0547C21.3822 45.4156 22.0604 45.5999 22.7478 45.5999C23.0923 45.5999 23.4392 45.5536 23.7808 45.4599C24.8042 45.1794 25.6596 44.5082 26.19 43.5685L26.6259 42.7939C27.6987 43.1067 28.8308 43.2742 30.0004 43.2742C31.1699 43.2742 32.3018 43.1067 33.3745 42.7941L33.811 43.5698C34.3407 44.5082 35.196 45.1795 36.2194 45.46C36.5612 45.5537 36.9079 45.6 37.2525 45.6C37.9398 45.6 38.6181 45.4156 39.2293 45.0547L40.8699 44.0859L39.6131 41.8592C39.2261 41.1737 38.6557 40.627 37.9726 40.2744C38.277 40.0098 38.5687 39.7304 38.8467 39.4373L39.6117 39.8906C40.2229 40.2515 40.9011 40.4359 41.5885 40.4359C41.933 40.4359 42.2798 40.3896 42.6215 40.296C43.6449 40.0155 44.5003 39.3442 45.03 38.4058L45.9774 36.7277L43.8003 35.4421C43.1318 35.0473 42.372 34.866 41.6087 34.9093C41.7427 34.527 41.8591 34.1363 41.9571 33.738L42.8338 33.7391Z" fill="#45D8BB"/>
<path d="M26.1379 32.5187L25.2345 37.9438L29.9998 35.3884L34.7651 37.9438L33.8616 32.5187L37.7102 28.6729L32.3865 27.8753L29.9998 22.9431L27.613 27.8753L22.2892 28.6729L26.1379 32.5187Z" fill="#45D8BB"/>
</svg>
