<svg width="12" height="15" viewBox="0 0 12 15" fill="none" xmlns="http://www.w3.org/2000/svg">
<path fill-rule="evenodd" clip-rule="evenodd" d="M11.9856 4.05821L11.986 4.06988C12.0174 5.83181 12.0564 8.02461 11.366 10.0171C10.9874 11.1098 10.4146 12.0597 9.66353 12.8405C8.80849 13.7294 7.68875 14.4355 6.33549 14.9392C6.29119 14.9557 6.24507 14.9691 6.19841 14.9791C6.13272 14.993 6.06638 15 6.00016 15C5.93393 15 5.8677 14.993 5.8019 14.9791C5.75524 14.9691 5.70944 14.9558 5.66536 14.9395C4.31049 14.4366 3.18957 13.7309 2.33377 12.8419C1.58236 12.0613 1.00954 11.1116 0.631308 10.0192C-0.0565565 8.03262 -0.017422 5.84394 0.0140791 4.08533L0.0147242 4.05821C0.0208524 3.9131 0.0250454 3.76066 0.0274107 3.59221C0.0389145 2.76503 0.656681 2.0809 1.43367 2.03478C3.05389 1.93843 4.30726 1.37606 5.3782 0.264959L5.38733 0.255689C5.73675 -0.0852297 6.26367 -0.0852297 6.61298 0.255689L6.62211 0.264959C7.69305 1.37606 8.94643 1.93843 10.5666 2.03467C11.3437 2.0809 11.9614 2.76503 11.9729 3.59209C11.9754 3.76169 11.9795 3.91413 11.9856 4.05821ZM5.48041 9.77973L8.79152 6.28301C9.0695 5.98945 9.0695 5.51354 8.79152 5.22017C8.51354 4.92661 8.06289 4.92661 7.7851 5.22017L4.97702 8.18548L4.2149 7.38063C3.93692 7.08707 3.48628 7.08707 3.20848 7.38063C2.93051 7.67419 2.93051 8.1501 3.20848 8.44347L4.47381 9.77973C4.6128 9.92671 4.79491 10 4.97702 10C5.15913 10 5.34143 9.92651 5.48041 9.77973Z" fill="#45D8BB"/>
</svg>
