<svg width="30" height="30" viewBox="0 0 30 30" fill="none" xmlns="http://www.w3.org/2000/svg">
<rect width="30" height="30" rx="5" fill="#7D519E"/>
<path d="M21.5943 10.5328C21.3339 9.56274 20.8183 8.79645 20.0631 8.25434C19.1099 7.56821 18.0136 7.32637 17.067 7.17827C15.7571 6.97447 14.5709 6.94594 13.4394 7.08996C12.3795 7.22582 11.5814 7.44185 10.8535 7.79103C9.42642 8.4758 8.56966 9.58312 8.30794 11.0817C8.18034 11.81 8.0944 12.4676 8.04492 13.0953C7.93034 14.5463 8.0345 15.8303 8.36263 17.0205C8.68294 18.1808 9.24153 19.0096 10.0709 19.5544C10.2819 19.693 10.5527 19.7935 10.8144 19.89C10.9629 19.9443 11.1074 19.9973 11.2259 20.0558C11.3353 20.1087 11.3353 20.1183 11.334 20.2134C11.3248 21.0381 11.334 22.6549 11.334 22.6549L11.3366 23H11.9303L12.0267 22.9022C12.0905 22.8397 13.5618 21.356 14.0865 20.7582L14.1582 20.6753C14.248 20.5666 14.248 20.5666 14.3404 20.5653C15.0488 20.5503 15.7727 20.5218 16.4915 20.481C17.3626 20.4321 18.3717 20.3438 19.3222 19.9308C20.192 19.5517 20.8274 18.9498 21.2089 18.1428C21.6073 17.3004 21.843 16.3887 21.9315 15.3548C22.0878 13.5369 21.9771 11.9594 21.5943 10.5328ZM18.4615 17.602C18.2428 17.9729 17.9172 18.2311 17.5331 18.3982C17.2519 18.5205 16.9654 18.4946 16.6881 18.3724C14.3665 17.3466 12.5449 15.7311 11.3418 13.4078C11.0931 12.9295 10.9212 12.4078 10.7233 11.9024C10.6829 11.7991 10.6855 11.6768 10.6673 11.5627C10.6842 10.7461 11.2845 10.2856 11.8912 10.147C12.123 10.0926 12.3287 10.1782 12.5006 10.3508C12.9772 10.8236 13.3535 11.3738 13.6373 11.9907C13.761 12.2611 13.705 12.5002 13.4941 12.7013C13.4498 12.7434 13.4043 12.7814 13.3561 12.8195C12.8743 13.1972 12.804 13.4839 13.0605 14.0531C13.498 15.0219 14.2246 15.6727 15.1634 16.0762C15.4108 16.1822 15.6438 16.1292 15.8326 15.92C15.8587 15.8928 15.8873 15.8656 15.9055 15.833C16.2753 15.189 16.8131 15.2529 17.3092 15.6197C17.6347 15.8615 17.9511 16.117 18.2727 16.3629C18.7636 16.7392 18.7597 17.0925 18.4615 17.602ZM15.3821 11.1741C15.2727 11.1741 15.1634 11.1836 15.0553 11.2027C14.873 11.2339 14.7024 11.1062 14.6712 10.916C14.6412 10.7271 14.7636 10.5478 14.9459 10.5165C15.0891 10.4907 15.2363 10.4785 15.3821 10.4785C16.8261 10.4785 18.0006 11.704 18.0006 13.2108C18.0006 13.3643 17.9889 13.5178 17.9641 13.6659C17.9368 13.8358 17.7961 13.9567 17.636 13.9567C17.6178 13.9567 17.5995 13.9553 17.58 13.9512C17.399 13.92 17.2766 13.7407 17.3066 13.5518C17.3248 13.4404 17.3339 13.3263 17.3339 13.2108C17.3339 12.0885 16.4576 11.1741 15.3821 11.1741ZM17.0006 13.261C17.0006 13.4526 16.8508 13.6089 16.6673 13.6089C16.4837 13.6089 16.3339 13.4526 16.3339 13.261C16.3339 12.6863 15.8847 12.2176 15.3339 12.2176C15.1503 12.2176 15.0006 12.0613 15.0006 11.8698C15.0006 11.6782 15.1503 11.5219 15.3339 11.5219C16.2532 11.5219 17.0006 12.3018 17.0006 13.261ZM18.9042 14.0341C18.8691 14.1958 18.731 14.3045 18.5787 14.3045C18.554 14.3045 18.5292 14.3018 18.5045 14.2964C18.3248 14.2529 18.2128 14.0667 18.2532 13.8792C18.3014 13.6578 18.3261 13.4282 18.3261 13.1972C18.3261 11.507 17.0071 10.1307 15.3873 10.1307C15.166 10.1307 14.9459 10.1565 14.7337 10.2067C14.554 10.2502 14.3756 10.132 14.3352 9.94453C14.2936 9.75703 14.4069 9.57089 14.5865 9.52877C14.847 9.46627 15.1165 9.43502 15.3873 9.43502C17.3756 9.43502 18.9928 11.1225 18.9928 13.1972C18.9928 13.4798 18.9628 13.761 18.9042 14.0341Z" fill="white"/>
</svg>
