<svg width="30" height="30" viewBox="0 0 30 30" fill="none" xmlns="http://www.w3.org/2000/svg">
<rect width="30" height="30" rx="5" fill="#39AA44"/>
<path d="M23 14.307C23 18.3423 19.7033 21.6136 15.6357 21.6136C14.3449 21.6136 13.1324 21.2834 12.0769 20.7053L8 22L9.32895 18.0787C8.65885 16.9782 8.27293 15.6859 8.27293 14.3066C8.27342 10.2713 11.5691 7 15.6367 7C19.7038 7.00098 23 10.2718 23 14.307ZM19.3546 15.9901C19.3086 15.9163 19.1882 15.8713 19.0083 15.7813C18.8287 15.6913 17.94 15.2584 17.7752 15.1997C17.6089 15.1395 17.4885 15.1092 17.3682 15.2887C17.2494 15.4682 16.9031 15.8713 16.7969 15.9916C16.6918 16.1114 16.5866 16.1266 16.4061 16.0381C16.2256 15.9471 15.6436 15.7593 14.9539 15.1493C14.4173 14.6739 14.0549 14.0884 13.9502 13.9089C13.8441 13.7299 13.9394 13.633 14.029 13.544C14.1097 13.4633 14.2094 13.3347 14.2999 13.2295C14.3904 13.1253 14.4203 13.0515 14.4804 12.9316C14.5396 12.8118 14.5098 12.7076 14.4653 12.6171C14.4203 12.5271 14.0598 11.6467 13.9086 11.2882C13.7585 10.9301 13.6083 10.9893 13.5027 10.9893C13.3975 10.9893 13.2772 10.9746 13.1568 10.9746C13.0365 10.9746 12.8409 11.0182 12.676 11.1977C12.5112 11.3772 12.0446 11.8101 12.0446 12.6915C12.0446 13.5738 12.6907 14.4244 12.7812 14.5438C12.8722 14.6626 14.0304 16.5306 15.8651 17.2477C17.7008 17.9642 17.7008 17.725 18.0315 17.6947C18.3631 17.6644 19.0997 17.2618 19.2494 16.8441C19.4 16.4245 19.4 16.065 19.3546 15.9901Z" fill="white"/>
</svg>
